<svg xmlns="http://www.w3.org/2000/svg" width="440" height="352" viewBox="0 0 440 352" fill="none">
  <style>
    text { font-family: 'JetBrains Mono', 'Fira Code', Consolas, monospace; }
    .muted { fill: #8b949e; } .main { fill: #c9d1d9; }
    .blue { fill: #79c8ff; } .green { fill: #4ade80; }
  </style>
  <rect x="1" y="1" width="438" height="350" rx="12" fill="#0d1117" stroke="#21262d"/>
  <text x="24" y="37" class="muted" font-size="12" letter-spacing="1.1">LINGUAGENS DOS REPOSITÓRIOS</text>
    <text x="24" y="62" class="muted" font-size="11">Linguagem principal · repositórios públicos próprios</text>
    <circle cx="29" cy="79" r="4" fill="#38bdf8"/>
      <text x="43" y="84" class="main" font-size="13">TypeScript</text>
      <text x="416" y="84" text-anchor="end" fill="#38bdf8" font-size="13" font-weight="700">2 repos · 33%</text>
      <rect x="24" y="93" width="392" height="6" rx="3" fill="#21262d"/>
      <rect x="24" y="93" width="310" height="6" rx="3" fill="#38bdf8"/>
<circle cx="29" cy="127" r="4" fill="#4ade80"/>
      <text x="43" y="132" class="main" font-size="13">HTML</text>
      <text x="416" y="132" text-anchor="end" fill="#4ade80" font-size="13" font-weight="700">1 repos · 17%</text>
      <rect x="24" y="141" width="392" height="6" rx="3" fill="#21262d"/>
      <rect x="24" y="141" width="155" height="6" rx="3" fill="#4ade80"/>
<circle cx="29" cy="175" r="4" fill="#93c5fd"/>
      <text x="43" y="180" class="main" font-size="13">JavaScript</text>
      <text x="416" y="180" text-anchor="end" fill="#93c5fd" font-size="13" font-weight="700">1 repos · 17%</text>
      <rect x="24" y="189" width="392" height="6" rx="3" fill="#21262d"/>
      <rect x="24" y="189" width="155" height="6" rx="3" fill="#93c5fd"/>
<circle cx="29" cy="223" r="4" fill="#facc15"/>
      <text x="43" y="228" class="main" font-size="13">Python</text>
      <text x="416" y="228" text-anchor="end" fill="#facc15" font-size="13" font-weight="700">1 repos · 17%</text>
      <rect x="24" y="237" width="392" height="6" rx="3" fill="#21262d"/>
      <rect x="24" y="237" width="155" height="6" rx="3" fill="#facc15"/>
<circle cx="29" cy="271" r="4" fill="#a78bfa"/>
      <text x="43" y="276" class="main" font-size="13">Outras</text>
      <text x="416" y="276" text-anchor="end" fill="#a78bfa" font-size="13" font-weight="700">1 repos · 17%</text>
      <rect x="24" y="285" width="392" height="6" rx="3" fill="#21262d"/>
      <rect x="24" y="285" width="155" height="6" rx="3" fill="#a78bfa"/>
    <text x="24" y="330" class="muted" font-size="11">6 repositórios públicos · atualizado 2026-10-10</text>
</svg>